<?xml version="1.0" encoding="UTF-8" standalone="no"?>
<!-- Generator: Adobe Illustrator 19.0.0, SVG Export Plug-In . SVG Version: 6.00 Build 0)  -->

<svg
   xmlns:dc="http://purl.org/dc/elements/1.1/"
   xmlns:cc="http://creativecommons.org/ns#"
   xmlns:rdf="http://www.w3.org/1999/02/22-rdf-syntax-ns#"
   xmlns:svg="http://www.w3.org/2000/svg"
   xmlns="http://www.w3.org/2000/svg"
   xmlns:sodipodi="http://sodipodi.sourceforge.net/DTD/sodipodi-0.dtd"
   xmlns:inkscape="http://www.inkscape.org/namespaces/inkscape"
   version="1.1"
   id="Capa_1"
   x="0px"
   y="0px"
   viewBox="0 0 352.4 352.4"
   style="enable-background:new 0 0 352.4 352.4;"
   xml:space="preserve"
   sodipodi:docname="icon.svg"
   inkscape:version="0.92.2 5c3e80d, 2017-08-06"><metadata
     id="metadata76"><rdf:RDF><cc:Work
         rdf:about=""><dc:format>image/svg+xml</dc:format><dc:type
           rdf:resource="http://purl.org/dc/dcmitype/StillImage" /></cc:Work></rdf:RDF></metadata><defs
     id="defs3952" /><sodipodi:namedview
     pagecolor="#ffffff"
     bordercolor="#666666"
     borderopacity="1"
     objecttolerance="10"
     gridtolerance="10"
     guidetolerance="10"
     inkscape:pageopacity="0"
     inkscape:pageshadow="2"
     inkscape:window-width="1440"
     inkscape:window-height="807"
     id="namedview3950"
     showgrid="true"
     inkscape:zoom="1.3393871"
     inkscape:cx="181.38697"
     inkscape:cy="170.27073"
     inkscape:window-x="0"
     inkscape:window-y="1"
     inkscape:window-maximized="1"
     inkscape:current-layer="Capa_1"
     showguides="false"><inkscape:grid
       type="xygrid"
       id="grid83" /></sodipodi:namedview><g
     id="g3913"
     transform="matrix(1.0191087,0,0,1,-3.4649695,0)"><path
       d="M 332.6,16.4 C 322.2,6 308.2,0 292.6,0 h -54 v 21.6 h 53.6 c 9.6,0 18.4,4 24.8,10.4 6.4,6.4 10.4,15.2 10.4,24.8 V 114 H 349 V 56.4 c 0,-15.6 -6.4,-29.6 -16.4,-40 z"
       id="path3905"
       inkscape:connector-curvature="0" /><path
       d="M 35.4,320 C 29,313.6 25,304.8 25,295.2 V 238.4 H 3.4 v 57.2 c 0,15.6 6.4,29.6 16.4,40 10.8,10 24.8,16.4 40.4,16.4 h 53.6 V 330.4 H 60.2 c -9.6,0 -18.4,-4 -24.8,-10.4 z"
       id="path3907"
       inkscape:connector-curvature="0" /><path
       d="m 327,295.6 c 0,9.6 -4,18.4 -10.4,24.8 -6.4,6.4 -15.2,10.4 -24.8,10.4 h -53.2 v 21.6 h 53.6 c 15.6,0 29.6,-6.4 40,-16.4 10.4,-10.4 16.4,-24.4 16.4,-40 V 238.4 H 327 Z"
       id="path3909"
       inkscape:connector-curvature="0" /><path
       d="M 20.2,16.4 C 9.8,26.8 3.8,40.8 3.8,56.4 v 57.2 H 25.4 V 56.4 C 25.4,46.8 29.4,38 35.8,31.6 42.2,25.2 51,21.2 60.6,21.2 h 53.6 V 0 h -54 C 44.6,0 30.6,6.4 20.2,16.4 Z"
       id="path3911"
       inkscape:connector-curvature="0" /></g><rect
     style="fill:#ffffff;fill-opacity:1;stroke-width:0.95852834;"
     id="rect890"
     width="242.74518"
     height="189.24713"
     x="56.504543"
     y="87.399994" /><g
     id="g4875"
     transform="matrix(4.4952812,0,0,4.4952812,47.513979,51.883082)"
     style="fill:#020000;fill-opacity:0.95294118"><path
       id="path4869"
       d="M 57,6 H 1 C 0.448,6 0,6.447 0,7 v 44 c 0,0.553 0.448,1 1,1 h 56 c 0.552,0 1,-0.447 1,-1 V 7 C 58,6.447 57.552,6 57,6 Z M 56,50 H 2 V 8 h 54 z"
       inkscape:connector-curvature="0"
       style="fill:#020000;fill-opacity:0.95294118" /><path
       id="path4871"
       d="m 16,28.138 c 3.071,0 5.569,-2.498 5.569,-5.568 C 21.569,19.498 19.071,17 16,17 c -3.071,0 -5.569,2.498 -5.569,5.569 0,3.071 2.498,5.569 5.569,5.569 z M 16,19 c 1.968,0 3.569,1.602 3.569,3.569 0,1.967 -1.601,3.569 -3.569,3.569 -1.968,0 -3.569,-1.601 -3.569,-3.568 C 12.431,20.603 14.032,19 16,19 Z"
       inkscape:connector-curvature="0"
       style="fill:#020000;fill-opacity:0.95294118" /><path
       id="path4873"
       d="m 7,46 c 0.234,0 0.47,-0.082 0.66,-0.249 L 23.973,31.389 34.275,41.69 c 0.391,0.391 1.023,0.391 1.414,0 0.391,-0.391 0.391,-1.023 0,-1.414 l -4.807,-4.807 9.181,-10.054 11.261,10.323 c 0.407,0.373 1.04,0.345 1.413,-0.062 0.373,-0.407 0.346,-1.04 -0.062,-1.413 l -12,-11 c -0.196,-0.179 -0.457,-0.268 -0.72,-0.262 -0.265,0.012 -0.515,0.129 -0.694,0.325 L 29.467,34.053 24.724,29.31 C 24.35,28.937 23.752,28.918 23.356,29.266 L 6.339,44.249 C 5.924,44.614 5.884,45.246 6.249,45.661 6.447,45.886 6.723,46 7,46 Z"
       inkscape:connector-curvature="0"
       style="fill:#020000;fill-opacity:0.95294118" /></g></svg>